# xmcd
# Copyright (C) 1995-1998 Ti Kan
#
# Track frame offsets:
#       150
#       23211
#       46817
#       65146
#       96808
#       114176
#       140553
#       165929
#       183144
#       208708
#       232479
#       256462
#       278159
#       297919
#
# Disc length: 4382 seconds
#
# Revision: 0
# Processed by: cddbd v1.5.2PL0 Copyright (c) Steve Scherf et al.
# Submitted via: CD-Import v1.0
#
DISCID=cc111c0e
DTITLE=J.r.r Tolkien - Der Hobbit
DYEAR=1900
DGENRE=
TTITLE0=Drüber Hin Und Unten Durch ( Forestzung )
TTITLE1=Drüber Hin Und Unten Durch ( Forestzung )
TTITLE2=Drüber Hin Und Unten Durch ( Forestzung )
TTITLE3=Drüber Hin Und Unten Durch ( Forestzung )
TTITLE4=Rätsel Im Dunkeln
TTITLE5=Rätsel Im Dunkeln
TTITLE6=Rätsel Im Dunkeln
TTITLE7=Rätsel Im Dunkeln
TTITLE8=Rätsel Im Dunkeln
TTITLE9=Rätsel Im Dunkeln
TTITLE10=Rätsel Im Dunkeln
TTITLE11=Rätsel Im Dunkeln
TTITLE12=Rätsel Im Dunkeln
TTITLE13=Rätsel Im Dunkeln
EXTD=
EXTT0=
EXTT1=
EXTT2=
EXTT3=
EXTT4=
EXTT5=
EXTT6=
EXTT7=
EXTT8=
EXTT9=
EXTT10=
EXTT11=
EXTT12=
EXTT13=
PLAYORDER=
